<svg xmlns="http://www.w3.org/2000/svg" width="378.734" height="107.224" viewBox="0 0 378.734 107.224">
  <g id="Group_268" data-name="Group 268" transform="translate(-3983.141 -753.449)">
    <path id="Path_1433" data-name="Path 1433" d="M4004.166,879.636h3.558c.577,0,.6-.476.6-.7,0-.248-.064-.55-.624-.725l-2.53-.8a1.558,1.558,0,0,1-.761-.476,1.874,1.874,0,0,1-.331-1.211,1.521,1.521,0,0,1,.413-1.192,1.422,1.422,0,0,1,1.055-.357h3.7v.962h-3.283a.687.687,0,0,0-.5.147.671.671,0,0,0-.165.495c0,.285.082.551.6.724l2.347.743c.642.2.981.413,1.146.77a2.147,2.147,0,0,1,.193.927,1.908,1.908,0,0,1-.321,1.192,1.275,1.275,0,0,1-1.146.459h-3.943Z" transform="translate(-20 -20)" fill="#fff"/>
    <g id="Group_232" data-name="Group 232" transform="translate(-20 -20)">
      <path id="Path_1434" data-name="Path 1434" d="M4003.879,852.791h31.8c5.164,0,5.41-4.262,5.41-6.229,0-2.213-.574-4.918-5.574-6.475l-22.622-7.131a13.957,13.957,0,0,1-6.8-4.263c-2.624-3.032-2.951-7.623-2.951-10.819,0-3.524.41-7.623,3.689-10.656,2.95-2.868,6.556-3.2,9.425-3.2h33.033v8.606h-29.344c-1.557,0-3.2.082-4.508,1.311a6,6,0,0,0-1.476,4.427c0,2.54.738,4.918,5.328,6.475l20.983,6.639c5.738,1.8,8.77,3.688,10.246,6.885a19.161,19.161,0,0,1,1.721,8.278c0,3.607-.492,7.623-2.869,10.656-2.868,3.689-6.393,4.1-10.245,4.1h-35.245Z" fill="#fff"/>
      <rect id="Rectangle_47" data-name="Rectangle 47" width="9.59" height="43.443" transform="translate(4056.499 817.955)" fill="#fff"/>
      <path id="Path_1435" data-name="Path 1435" d="M4114.152,848.215v.239c0-.151,0-.239,0-.239" fill="#fff"/>
      <path id="Path_1436" data-name="Path 1436" d="M4124.972,833.284v20.737c0,2.95-1.066,4.754-2.131,5.655a9.659,9.659,0,0,1-5.573,1.72h-24.426a20.079,20.079,0,0,1-13.361-4.507c-6.966-5.9-7.542-15.737-7.542-23.852,0-9.344.9-20.082,9.346-25.492,3.606-2.376,8.2-3.523,13.852-3.523h29.835v8.607h-26.8c-6.23,0-10.493,2.213-12.706,6.228-1.066,1.721-2.376,5.657-2.376,13.853,0,8.279,1.394,12.376,2.294,14.1,2.379,4.834,6.4,5.984,10.984,5.984h13.755c3.668,0,4.009-3.4,4.031-4.338,0-.151,0-.239,0-.239V833.284Z" fill="#fff"/>
      <path id="Path_1437" data-name="Path 1437" d="M4140.051,857.463h32.376c3.443,0,6.721-1.8,6.721-9.835,0-3.771-.82-7.214-7.213-9.427l-22.868-7.868c-2.868-.984-5.492-2.378-7.049-4.262-2.377-2.7-2.869-6.066-2.869-9.263,0-2.95.328-6.967,3.853-9.917,1.639-1.394,4.508-2.869,9.1-2.869h29.1v3.935h-29.59c-2.049,0-4.59.655-5.983,2.212-1.722,1.886-1.722,4.836-1.722,6.8,0,3.688.246,7.131,5.82,9.1l22.295,7.868c3.524,1.23,6.393,2.377,8.36,4.262a12.42,12.42,0,0,1,3.524,9.263c0,.491.082,6.475-2.787,10.163-2.54,3.443-6.311,3.771-9.18,3.771h-31.884Z" fill="#fff"/>
      <path id="Path_1438" data-name="Path 1438" d="M4203.975,861.4a13.577,13.577,0,0,1-11.475-5.327c-3.361-4.344-3.525-9.59-3.525-16.066,0-6.147.328-13.36,5.819-18.032,3.935-3.278,9.263-3.852,13.607-3.852,3.033,0,7.54.41,11.065,2.459,3.852,2.3,6.967,6.8,6.967,13.77,0,1.721-.246,4.1-1.8,5.491-1.312,1.23-3.361,1.312-4.59,1.312h-26.475A34.916,34.916,0,0,0,4194.3,850a9.869,9.869,0,0,0,9.672,7.541h21.31V861.4Zm16.065-24.1a1.789,1.789,0,0,0,1.8-1.967v-.738a14.615,14.615,0,0,0-2.951-8.853c-3.033-3.688-7.458-3.77-11.229-3.77-4.344,0-9.016.246-12.049,5.246-1.721,2.869-1.967,5.9-2.049,10.082Z" fill="#fff"/>
      <path id="Path_1439" data-name="Path 1439" d="M4231.554,832.874c0-4.508.573-8.2,3.852-11.394,1.886-1.721,4.754-3.524,10.656-3.524h2.951v3.852h-2.624c-2.377,0-5.983.328-8.36,3.033-1.885,2.213-2.213,5.492-2.213,9.016V861.4h-4.262Z" fill="#fff"/>
      <path id="Path_1440" data-name="Path 1440" d="M4272.493,856.07c.247.573.82,1.8,1.23,1.8s.984-1.23,1.23-1.8l14.016-38.114h4.344l-15.082,40.163c-1.229,3.2-2.869,3.771-4.508,3.771s-3.279-.575-4.508-3.771l-15.081-40.163h4.344Z" fill="#fff"/>
      <path id="Path_1441" data-name="Path 1441" d="M4323.916,861.4c-6.966,0-10.9-3.114-12.787-5.491-3.688-4.59-3.852-10.738-3.852-15.656,0-5.9.411-12.786,4.836-17.458,2.541-2.541,6.722-4.836,13.525-4.836h15.655v3.852h-16.147c-5.82,0-10.9,2.705-12.541,8.853a53.238,53.238,0,0,0-.9,10.163c0,3.033.41,7.541,1.557,10.246,2.623,5.737,8.689,6.475,12.787,6.475h15.246V861.4Z" fill="#fff"/>
      <path id="Path_1442" data-name="Path 1442" d="M4359.417,861.4a13.579,13.579,0,0,1-11.475-5.327c-3.361-4.344-3.525-9.59-3.525-16.066,0-6.147.328-13.36,5.819-18.032,3.935-3.278,9.263-3.852,13.607-3.852,3.033,0,7.541.41,11.065,2.459,3.852,2.3,6.967,6.8,6.967,13.77,0,1.721-.245,4.1-1.8,5.491-1.312,1.23-3.36,1.312-4.59,1.312h-26.475a34.96,34.96,0,0,0,.738,8.852,9.869,9.869,0,0,0,9.672,7.541h21.311V861.4Zm16.065-24.1a1.789,1.789,0,0,0,1.8-1.967v-.738a14.617,14.617,0,0,0-2.951-8.853c-3.034-3.688-7.459-3.77-11.23-3.77-4.344,0-9.016.246-12.049,5.246-1.721,2.869-1.967,5.9-2.049,10.082Z" fill="#fff"/>
      <path id="Path_1443" data-name="Path 1443" d="M4019.948,874.181h1.3l-2.715,4.456V880.6h-1.211v-1.963l-2.713-4.456h1.3l2.017,3.365Z" fill="#fff"/>
      <path id="Path_1444" data-name="Path 1444" d="M4026.368,879.636h3.558c.577,0,.6-.476.6-.7,0-.248-.064-.55-.623-.725l-2.531-.8a1.556,1.556,0,0,1-.76-.476,1.874,1.874,0,0,1-.331-1.211,1.522,1.522,0,0,1,.413-1.192,1.42,1.42,0,0,1,1.054-.357h3.7v.962h-3.282a.688.688,0,0,0-.505.147.675.675,0,0,0-.165.495c0,.285.083.551.6.724l2.348.743c.641.2.981.413,1.146.77a2.145,2.145,0,0,1,.192.927,1.909,1.909,0,0,1-.32,1.192,1.277,1.277,0,0,1-1.146.459h-3.943Z" fill="#fff"/>
      <path id="Path_1445" data-name="Path 1445" d="M4039.316,880.6v-5.456h-2.5v-.963h6.227v.963h-2.513V880.6Z" fill="#fff"/>
      <path id="Path_1446" data-name="Path 1446" d="M4049.5,880.6a.906.906,0,0,1-.733-.2.978.978,0,0,1-.238-.752V875.1a1.047,1.047,0,0,1,.22-.67.993.993,0,0,1,.77-.247h4.117v.962h-3.466a.49.49,0,0,0-.33.092.389.389,0,0,0-.1.312v1.293h3.805v.962h-3.805v1.5a.284.284,0,0,0,.092.248c.073.073.219.082.412.082h3.43v.963Zm2.477-7.464-.541.678-1.486-1.209.55-.689Z" fill="#fff"/>
      <path id="Path_1447" data-name="Path 1447" d="M4064.452,879.9c-.193.486-.34.771-.917.771-.6,0-.771-.367-.917-.771l-1.641-4.282c-.028-.073-.092-.211-.156-.211-.1,0-.1.165-.1.192l.028,5h-1.211v-5.648c0-.835.853-.844,1.036-.844a1.063,1.063,0,0,1,1.128.825l1.66,4.283c.064.137.11.238.174.238s.11-.1.174-.238l1.66-4.283a1.054,1.054,0,0,1,1.128-.825c.6,0,1.035.257,1.035.844V880.6h-1.21l.037-5c0-.173-.073-.192-.11-.192-.064,0-.129.138-.156.211Z" fill="#fff"/>
      <path id="Path_1448" data-name="Path 1448" d="M4074.641,880.6a.909.909,0,0,1-.734-.2.977.977,0,0,1-.238-.751V875.1a1.05,1.05,0,0,1,.219-.67,1,1,0,0,1,.771-.247h4.117v.963h-3.466a.489.489,0,0,0-.33.091.389.389,0,0,0-.1.312v1.293h3.806v.962h-3.806v1.5a.285.285,0,0,0,.092.248c.073.073.22.082.413.082h3.429v.963Z" fill="#fff"/>
      <path id="Path_1449" data-name="Path 1449" d="M4084.48,879.636h3.558c.578,0,.606-.476.606-.7,0-.248-.065-.55-.624-.725l-2.531-.8a1.566,1.566,0,0,1-.761-.476,1.879,1.879,0,0,1-.33-1.211,1.522,1.522,0,0,1,.413-1.192,1.418,1.418,0,0,1,1.054-.357h3.7v.962h-3.282a.689.689,0,0,0-.505.147.674.674,0,0,0-.164.495c0,.285.082.551.6.724l2.347.743c.642.2.981.413,1.146.77a2.148,2.148,0,0,1,.193.927,1.909,1.909,0,0,1-.321,1.192,1.276,1.276,0,0,1-1.146.459h-3.944Z" fill="#fff"/>
      <path id="Path_1450" data-name="Path 1450" d="M4103.812,880.6a1.118,1.118,0,0,1-.716-.174.782.782,0,0,1-.266-.642v-4.576a1.048,1.048,0,0,1,.221-.752.9.9,0,0,1,.687-.275h2.513a2.428,2.428,0,0,1,1.88.762,3.4,3.4,0,0,1,.65,2.375,4.369,4.369,0,0,1-.568,2.494,2.128,2.128,0,0,1-1.8.788Zm.229-1.4c0,.138-.018.248.083.349.082.1.2.091.312.091h1.393a1.437,1.437,0,0,0,1.385-.6,3.44,3.44,0,0,0,.321-1.815,2.307,2.307,0,0,0-.45-1.614,1.847,1.847,0,0,0-1.375-.468h-1.256a.476.476,0,0,0-.284.064.434.434,0,0,0-.129.321Z" fill="#fff"/>
      <path id="Path_1451" data-name="Path 1451" d="M4114.184,875.675l1.155-1.843.871.532-1.229,1.8Z" fill="#fff"/>
      <rect id="Rectangle_48" data-name="Rectangle 48" width="1.211" height="6.419" transform="translate(4122.162 874.181)" fill="#fff"/>
      <path id="Path_1452" data-name="Path 1452" d="M4135.651,879.765a.85.85,0,0,1-.954.908,1.093,1.093,0,0,1-1.036-.542l-2.705-4.272c-.1-.138-.119-.156-.146-.156-.046,0-.129.046-.129.183V880.6h-1.174v-5.621c0-.55.367-.871.981-.871a1.057,1.057,0,0,1,1.019.5l2.723,4.3c.045.064.064.156.146.156.1,0,.1-.11.1-.156V874.18h1.173Z" fill="#fff"/>
      <path id="Path_1453" data-name="Path 1453" d="M4141.786,880.6v-5.575a.8.8,0,0,1,.239-.615.912.912,0,0,1,.687-.228h4.182v.963H4143.3a.252.252,0,0,0-.23.073.339.339,0,0,0-.073.256v1.394h2.842v.963H4143V880.6Z" fill="#fff"/>
      <path id="Path_1454" data-name="Path 1454" d="M4158.008,874.786a3.32,3.32,0,0,1-2.558,5.887,2.71,2.71,0,0,1-3.3-3.283,3.445,3.445,0,0,1,.743-2.6,5.157,5.157,0,0,1,5.116,0m-4.217,4.392a1.91,1.91,0,0,0,1.65.531,1.96,1.96,0,0,0,1.66-.531,2.856,2.856,0,0,0,.394-1.788,2.726,2.726,0,0,0-.394-1.8,1.992,1.992,0,0,0-1.66-.523,1.962,1.962,0,0,0-1.65.523,2.828,2.828,0,0,0-.4,1.8,2.8,2.8,0,0,0,.4,1.788" fill="#fff"/>
      <path id="Path_1455" data-name="Path 1455" d="M4164.695,875.272a.93.93,0,0,1,1.036-1.091h3.044a1.464,1.464,0,0,1,1.375.587,2.369,2.369,0,0,1,.321,1.412,2.931,2.931,0,0,1-.275,1.448,1.218,1.218,0,0,1-1.21.66h-.826v.046l2.44,2.266h-1.523l-2.109-2.082a.93.93,0,0,1-.3-.542v-.146c0-.257.183-.44.541-.44h1.21a.73.73,0,0,0,.66-.285,2.082,2.082,0,0,0,.147-.879,1.2,1.2,0,0,0-.229-.89.926.926,0,0,0-.679-.193h-1.962a.4.4,0,0,0-.449.458v5h-1.21Z" fill="#fff"/>
      <path id="Path_1456" data-name="Path 1456" d="M4181.375,879.9c-.193.486-.34.771-.917.771-.6,0-.771-.367-.917-.771l-1.641-4.282c-.028-.073-.092-.211-.157-.211-.1,0-.1.165-.1.192l.028,5h-1.211v-5.648c0-.835.852-.844,1.036-.844a1.063,1.063,0,0,1,1.128.825l1.66,4.283c.064.137.11.238.174.238s.11-.1.174-.238l1.66-4.283a1.054,1.054,0,0,1,1.128-.825c.6,0,1.035.257,1.035.844V880.6h-1.21l.037-5c0-.173-.073-.192-.11-.192-.064,0-.129.138-.156.211Z" fill="#fff"/>
      <path id="Path_1457" data-name="Path 1457" d="M4192.187,874.831a.97.97,0,0,1,1.055-.724.986.986,0,0,1,1.054.724l2.421,5.768h-1.275l-.66-1.623h-3.09l-.651,1.623h-1.275Zm-.183,3.283h2.467l-1.046-2.613c-.037-.1-.1-.266-.183-.266s-.147.165-.184.266Z" fill="#fff"/>
      <path id="Path_1458" data-name="Path 1458" d="M4202.972,880.6v-5.456h-2.5v-.963h6.227v.963h-2.513V880.6Z" fill="#fff"/>
      <rect id="Rectangle_49" data-name="Rectangle 49" width="1.211" height="6.419" transform="translate(4212.188 874.181)" fill="#fff"/>
      <path id="Path_1459" data-name="Path 1459" d="M4225.209,874.786a3.32,3.32,0,0,1-2.558,5.887,2.709,2.709,0,0,1-3.3-3.283,3.446,3.446,0,0,1,.743-2.6,5.158,5.158,0,0,1,5.116,0m-4.217,4.392a1.911,1.911,0,0,0,1.65.531,1.959,1.959,0,0,0,1.66-.531,2.853,2.853,0,0,0,.394-1.788,2.726,2.726,0,0,0-.394-1.8,1.991,1.991,0,0,0-1.66-.523,1.962,1.962,0,0,0-1.65.523,2.828,2.828,0,0,0-.4,1.8,2.792,2.792,0,0,0,.4,1.788" fill="#fff"/>
      <path id="Path_1460" data-name="Path 1460" d="M4238.039,879.765a.85.85,0,0,1-.954.908,1.094,1.094,0,0,1-1.036-.542l-2.7-4.272c-.1-.138-.119-.156-.146-.156-.046,0-.129.046-.129.183V880.6H4231.9v-5.621c0-.55.366-.871.981-.871a1.053,1.053,0,0,1,1.017.5l2.724,4.3c.046.064.064.156.146.156.1,0,.1-.11.1-.156V874.18h1.173Z" fill="#fff"/>
      <path id="Path_1461" data-name="Path 1461" d="M4252.226,880.6a.906.906,0,0,1-.733-.2.977.977,0,0,1-.238-.751V875.1a1.049,1.049,0,0,1,.219-.67.993.993,0,0,1,.77-.247h4.118v.963H4252.9a.488.488,0,0,0-.329.091.389.389,0,0,0-.1.312v1.293h3.805v.962h-3.805v1.5a.285.285,0,0,0,.091.248c.073.073.22.082.413.082h3.43v.963Z" fill="#fff"/>
      <path id="Path_1462" data-name="Path 1462" d="M4264.121,880.6v-5.456h-2.5v-.963h6.227v.963h-2.512V880.6Z" fill="#fff"/>
      <path id="Path_1463" data-name="Path 1463" d="M4281.4,880.6a1.12,1.12,0,0,1-.716-.174.782.782,0,0,1-.266-.642v-4.576a1.045,1.045,0,0,1,.22-.752.9.9,0,0,1,.689-.275h2.512a2.425,2.425,0,0,1,1.879.762,3.4,3.4,0,0,1,.651,2.375,4.37,4.37,0,0,1-.568,2.494,2.127,2.127,0,0,1-1.8.788Zm.229-1.4c0,.138-.019.248.083.349a.354.354,0,0,0,.311.091h1.393a1.437,1.437,0,0,0,1.386-.6,3.444,3.444,0,0,0,.32-1.815,2.3,2.3,0,0,0-.449-1.614,1.848,1.848,0,0,0-1.376-.468h-1.256a.478.478,0,0,0-.284.064.437.437,0,0,0-.128.321Z" fill="#fff"/>
      <path id="Path_1464" data-name="Path 1464" d="M4293.291,880.6a.907.907,0,0,1-.733-.2.977.977,0,0,1-.238-.751V875.1a1.049,1.049,0,0,1,.219-.67.994.994,0,0,1,.771-.247h4.117v.963h-3.466a.49.49,0,0,0-.33.091.389.389,0,0,0-.1.312v1.293h3.805v.962h-3.805v1.5a.288.288,0,0,0,.091.248.623.623,0,0,0,.413.082h3.43v.963Z" fill="#fff"/>
      <path id="Path_1465" data-name="Path 1465" d="M4316.153,879.774a.8.8,0,0,1-.239.633,1.084,1.084,0,0,1-.623.192h-2.733a2.245,2.245,0,0,1-1.494-.5,3.344,3.344,0,0,1-.844-2.668c0-1.046.1-2.247,1.046-2.852a2.751,2.751,0,0,1,1.548-.4h3.192v.964h-2.852a1.491,1.491,0,0,0-1.421.7,3.116,3.116,0,0,0-.266,1.55,3.524,3.524,0,0,0,.257,1.577,1.21,1.21,0,0,0,1.229.669h1.567a.379.379,0,0,0,.422-.43v-1.752h1.211Z" fill="#fff"/>
      <path id="Path_1466" data-name="Path 1466" d="M4323.077,880.6a.905.905,0,0,1-.733-.2.974.974,0,0,1-.239-.751V875.1a1.044,1.044,0,0,1,.22-.67.993.993,0,0,1,.77-.247h4.117v.963h-3.466a.49.49,0,0,0-.33.091.389.389,0,0,0-.1.312v1.293h3.806v.962h-3.806v1.5a.284.284,0,0,0,.092.248c.073.073.22.082.412.082h3.43v.963Z" fill="#fff"/>
      <path id="Path_1467" data-name="Path 1467" d="M4332.917,879.636h3.558c.577,0,.6-.476.6-.7,0-.248-.063-.55-.623-.725l-2.531-.8a1.559,1.559,0,0,1-.76-.476,1.874,1.874,0,0,1-.331-1.211,1.524,1.524,0,0,1,.413-1.192,1.421,1.421,0,0,1,1.054-.357h3.7v.962h-3.283a.684.684,0,0,0-.5.147.674.674,0,0,0-.166.495c0,.285.083.551.6.724l2.347.743c.642.2.981.413,1.146.77a2.146,2.146,0,0,1,.192.927,1.907,1.907,0,0,1-.32,1.192,1.275,1.275,0,0,1-1.146.459h-3.943Z" fill="#fff"/>
      <path id="Path_1468" data-name="Path 1468" d="M4345.866,880.6v-5.456h-2.5v-.963h6.227v.963h-2.512V880.6Z" fill="#fff"/>
      <rect id="Rectangle_50" data-name="Rectangle 50" width="1.211" height="6.419" transform="translate(4355.082 874.181)" fill="#fff"/>
      <path id="Path_1469" data-name="Path 1469" d="M4368.1,874.786a3.32,3.32,0,0,1-2.558,5.887,2.709,2.709,0,0,1-3.3-3.283,3.444,3.444,0,0,1,.743-2.6,5.158,5.158,0,0,1,5.116,0m-4.218,4.392a1.914,1.914,0,0,0,1.651.531,1.961,1.961,0,0,0,1.66-.531,2.853,2.853,0,0,0,.394-1.788,2.732,2.732,0,0,0-.394-1.8,1.993,1.993,0,0,0-1.66-.523,1.965,1.965,0,0,0-1.651.523,2.834,2.834,0,0,0-.394,1.8,2.8,2.8,0,0,0,.394,1.788" fill="#fff"/>
      <path id="Path_1470" data-name="Path 1470" d="M4380.933,879.765a.85.85,0,0,1-.954.908,1.094,1.094,0,0,1-1.036-.542l-2.705-4.272c-.1-.138-.119-.156-.147-.156-.045,0-.128.046-.128.183V880.6h-1.174v-5.621c0-.55.367-.871.981-.871a1.055,1.055,0,0,1,1.018.5l2.723,4.3c.046.064.065.156.147.156.1,0,.1-.11.1-.156V874.18h1.174Z" fill="#fff"/>
      <rect id="Rectangle_51" data-name="Rectangle 51" width="3.724" height="43.44" transform="translate(4298.433 817.957)" fill="#fff"/>
      <path id="Path_1471" data-name="Path 1471" d="M4078.024,795.172c-5.407-5.769-.677-9.511-6.965-15.436-3.9-3.584-10.082-5.248-15.278-4.883l-.987-.573-1.4-.831-1.455.831-1.405.83v2.132l2.235-1.3.417.259-2.858,1.612-6.7,4-.521-.311-1.092-.676-1.141.676-1.143.676v2.6l1.143.678,1.141.623,1.092-.623.155-.106-1.61-.935V783.9l2.08,1.194,10.6,5.665v4.365l2.287,1.3,2.337,1.353,2.286-1.353,2.288-1.3v-5.3l-2.288-1.3-2.286-1.35-2.337,1.35-1.352.78,4.157,2.39v.521l-4.624-2.652-10.55-5.612v-1.09l6.911-4.055.781.468,1.455.831,1.4-.831,1.455-.831v-1.611a12.62,12.62,0,0,1,13.355,6.7,15,15,0,0,1-.312,15.122c-4.045,6.343-10.153,5.572-12.545,13.112a.662.662,0,0,0,.628.864h8.208a.662.662,0,0,0,.633-.478c1.656-5.612,6.993-2.013,8.584-3.105a1.894,1.894,0,0,0,.675-2.182,2.6,2.6,0,0,1,.366-2.546c.882-.312,1.09-.779.674-1.351-.623-.624-.623-1.143.052-1.559.885-.364.935-.936.1-1.663-1.091-.987-.675-1.922,1.2-2.7q1.25-.468.158-1.87M4065.394,784l-.728-.467-.778.467-.78.416v1.819l.78.417.778.467.728-.467.781-.417v-1.819Zm-11.225-2.025-.727-.416-.78.416-.779.467v1.768l.779.468.78.414.727-.414.78-.468v-1.768Zm8.419,18.083-.778-.468-.78.468-.78.416v1.819l.78.417.78.467.778-.467.726-.417v-1.819Zm-13.46-7.068-.779-.414-.78.414-.778.47v1.766l.778.416.78.468.779-.468.729-.416v-1.766Z" fill="#fff" fill-rule="evenodd"/>
      <rect id="Rectangle_52" data-name="Rectangle 52" width="3.724" height="5.934" transform="translate(4298.433 804.022)" fill="#fff"/>
    </g>
  </g>
</svg>
